<svg xmlns="http://www.w3.org/2000/svg"><symbol id="pause" viewBox="0 0 24 24"><rect width="4" height="16" x="6" y="4"></rect><rect width="4" height="16" x="14" y="4"></rect></symbol><symbol id="play" viewBox="0 0 24 24"><polygon points="5 3 19 12 5 21 5 3"></polygon></symbol><symbol id="replay" viewBox="0 0 24 24"><path d="M3 12a9 9 0 1 0 9-9 9.75 9.75 0 0 0-6.74 2.74L3 8"></path><path d="M3 3v5h5"></path></symbol><symbol id="skip" viewBox="0 0 24 24"><polygon points="5 4 15 12 5 20 5 4"></polygon><line x1="19" x2="19" y1="5" y2="19"></line></symbol><symbol id="arrow" viewBox="0 0 24 24"><path d="M7 7h10v10"></path><path d="M7 17 17 7"></path></symbol><symbol id="back" viewBox="0 0 24 24"><path d="m12 19-7-7 7-7"></path><path d="M19 12H5"></path></symbol></svg>